<?xml version="1.0" encoding="utf-8"?>
<!-- Generator: Adobe Illustrator 22.1.0, SVG Export Plug-In . SVG Version: 6.00 Build 0)  -->
<svg version="1.1" id="图层_1" xmlns="http://www.w3.org/2000/svg" xmlns:xlink="http://www.w3.org/1999/xlink" x="0px" y="0px"
	 width="338px" height="189px" viewBox="0 0 338 189" style="enable-background:new 0 0 338 189;" xml:space="preserve">
<style type="text/css">
	.st0{fill:#E8EAEA;}
	.st1{fill:url(#SVGID_1_);}
	.st2{fill:url(#SVGID_2_);}
	.st3{fill:#FFFFFF;}
	.st4{fill:#FFCF6E;}
	.st5{fill:url(#SVGID_3_);}
	.st6{fill:url(#SVGID_4_);}
	.st7{fill:url(#SVGID_5_);}
	.st8{fill:url(#SVGID_6_);}
	.st9{fill:url(#SVGID_7_);}
	.st10{fill:url(#SVGID_8_);}
	.st11{fill:url(#SVGID_9_);}
	.st12{fill:url(#SVGID_10_);}
	.st13{fill:url(#SVGID_11_);}
	.st14{fill:url(#SVGID_12_);}
	.st15{fill:url(#SVGID_13_);}
	.st16{fill:url(#SVGID_14_);}
	.st17{fill:url(#SVGID_15_);}
	.st18{fill:url(#SVGID_16_);}
	.st19{fill:url(#SVGID_17_);}
	.st20{fill:url(#SVGID_18_);}
	.st21{fill:url(#SVGID_19_);}
	.st22{fill:url(#SVGID_20_);}
	.st23{fill:url(#SVGID_21_);}
	.st24{fill:url(#SVGID_22_);}
	.st25{fill:url(#SVGID_23_);}
	.st26{fill:url(#SVGID_24_);}
	.st27{opacity:5.000000e-02;}
	.st28{fill:#FFE29C;}
	.st29{fill:url(#SVGID_25_);}
	.st30{fill:url(#SVGID_26_);}
	.st31{fill:url(#SVGID_27_);}
	.st32{fill:url(#SVGID_28_);}
	.st33{fill:url(#SVGID_29_);}
	.st34{fill:url(#SVGID_30_);}
	.st35{fill:url(#SVGID_31_);}
	.st36{fill:#5A77EB;}
	.st37{fill:url(#SVGID_32_);}
	.st38{fill:url(#SVGID_33_);}
	.st39{fill:url(#SVGID_34_);}
	.st40{fill:url(#SVGID_35_);}
	.st41{fill:url(#SVGID_36_);}
	.st42{fill:url(#SVGID_37_);}
	.st43{fill:#FFD46A;}
	.st44{fill:#FFD180;}
	.st45{fill:#FCB856;}
	.st46{fill:#FFF0D2;}
	.st47{fill:url(#SVGID_38_);}
	.st48{fill:url(#SVGID_39_);}
	.st49{fill:url(#SVGID_40_);}
	.st50{fill:#DDDDDD;}
</style>
<g>
	<path class="st0" d="M11.7,169.1c21.4-3.7,93.6,0.8,123.1,3.3c29.5,2.4,172.7-4.8,182,0.7c7.3,4.3-177.8,4.9-263.8,3.2
		c-22.8-0.5-38.6-1.1-42.1-1.8C-5.7,170.9,11.7,169.1,11.7,169.1z"/>
	
		<linearGradient id="SVGID_1_" gradientUnits="userSpaceOnUse" x1="324.1348" y1="568.593" x2="324.1348" y2="664.6085" gradientTransform="matrix(0.9516 0.3074 -0.3074 0.9516 151.9268 -564.1279)">
		<stop  offset="0" style="stop-color:#7790E0"/>
		<stop  offset="1" style="stop-color:#8B90FF"/>
	</linearGradient>
	<path class="st1" d="M278.4,100.5c-1.9,1.3-2.8,3.8-3.7,5.7c-0.1,0.2-0.3,0.7-0.4,1.1c0-1.1,0-2.2-0.1-3.2c0-0.7,0-1.4,0-2.2
		c0.5-0.3,1.2-1.3,2.4-2.2c1.3-1,2.3-1.1,2.6-2.9c0.2-1.7-0.7-3.3-2.6-1.9c-1.6,1.1-2.1,3.1-2.4,4.9c0-2.2-0.2-4.4-0.8-6.5
		c2.3-5.8-1.5-12.9-6.3-15.9c-0.5-0.3-1-0.6-1.6-0.5c-1.3,0.1-2,1.6-2,2.7c0,1.6,0.9,3,1.9,4.2c1.1,1.2,2.4,2.2,3.5,3.3
		c1,0.9,1.7,2,2.4,3c0,0,0,0,0,0.1c0.9,2,1.3,4.1,1.4,6.3c-0.5-1.2-1.7-2.6-2.2-3.2c-1.3-1.5-3.2-2.8-5.4-3.1
		c-0.4-0.1-0.9-0.1-1.2,0.2c-0.4,0.3-0.5,0.9-0.4,1.4c0.3,1.6,1.4,3.1,2.9,3.9c1.9,1.1,4.4,1.5,6.4,2.5c0,0,0,0,0.1-0.1
		c0,1.3,0,2.6,0,4c-1-1.4-2.7-2.8-3.6-3.3c-0.7-0.4-1.5-0.7-2.4-0.6c-0.9,0.1-1.8,0.6-2.1,1.4c-0.2,0.5-0.1,0.9,0.1,1.3
		c0.6,1.3,2.1,1.9,3.6,2.5c1.4,0.5,2.9,1.1,4.4,1.6c0,0.2,0,0.3,0,0.5c0,2.3,0,4.6,0.1,6.9c-0.5-1.1-1.1-2.3-1.8-3.3
		c-1.4-2.1-3.4-3.9-5.9-4.9c-1-0.4-2.1-0.7-3.2-0.5c-0.5,0.1-1,0.3-1.2,0.7c-0.1,0.2-0.1,0.4-0.1,0.7c0.2,1.4,1.3,2.4,2.4,3.2
		c1.9,1.2,4.2,1.9,6.3,2.8c1.2,0.5,2.6,1.2,3.5,2.1c0.1,2.4,0.2,4.7,0.4,7.1c-0.8-2.2-2.6-4.5-4-6.1c-1.3-1.5-3.3-2.9-5.6-2.5
		c-0.3,0.1-0.7,0.2-1,0.3c-0.9,0.6-1,1.8-0.5,2.6c0.5,1,1.6,1.8,2.7,2.2c1.1,0.5,2.4,0.8,3.5,1.3c2.1,0.8,3.5,2.1,4.9,3.6
		c0.2,1.8,0.4,3.6,0.7,5.4c-0.6-1-1.4-1.9-1.9-2.3c-1.4-1.5-3.2-2.7-5.3-3.4c-0.7-0.2-1.6-0.4-2.2,0c-0.6,0.4-0.8,1.1-0.9,1.7
		c-0.1,1.6,0.7,3.1,2.1,3.9c0.9,0.5,2,0.8,3,1c1.1,0.2,2.2,0.5,3.3,0.7c0.8,0.2,1.6,0.5,2.3,0.9c0.3,2,0.7,3.9,1.2,5.9
		c-0.4-0.7-0.9-1.4-1.5-2c-1.2-1.4-2.9-2.5-4.9-3c-0.7-0.1-1.5-0.2-2.1,0.2c-0.9,0.5-1.1,1.7-0.7,2.5s1.4,1.2,2.3,1.5
		c0.9,0.2,1.8,0.4,2.8,0.4c0.7,0,1.4,0,2,0.1c0.8,0.2,1.4,0.7,2,1.2c0.1,0.1,0.2,0.2,0.4,0.3c0.4,1.5,0.8,3,1.2,4.5
		c-1.3-1.2-3.1-1.9-4.8-2.2c-1.1-0.2-2.5-0.1-3.1,0.9c-0.2,0.3-0.3,0.6-0.2,0.9c0.1,1.1,1.4,1.8,2.6,1.9c1.3,0.1,2.6-0.2,3.9-0.2
		c0.7,0,1.5,0.4,2.2,0.5c0.8,2.4,1.7,4.7,2.9,6.8c0.4,0.6,1.4,0.1,1.2-0.6c-0.6-1.8-1.2-3.6-1.7-5.4c1-0.4,4.6-2.7,5.2-3.1
		c0.9-0.5,1.7-1.5,1.6-2.4c-0.2-0.9-1.2-1.3-2.2-1.2c-1,0.2-1.9,0.8-2.6,1.5c-0.4,0.4-1.8,2.4-2.3,3.8c-0.6-1.8-1.2-3.7-1.7-5.5
		c0.4-0.5,0.9-1,1.4-1.3c0.9-0.6,1.9-1,2.8-1.6c0.9-0.6,1.6-1.6,1.3-2.5c-0.3-1-1.9-1.3-3-0.8c-1.2,0.5-1.9,1.6-2.4,2.7
		c-0.2,0.3-0.4,0.8-0.6,1.3c0-0.2-0.1-0.3-0.1-0.5c-0.2-0.8-0.4-1.7-0.5-2.5c1.2-0.8,2.3-2.3,3.4-3.3c1-0.9,2.1-1.8,2.6-3
		s0.1-2.7-1.2-2.9c-1.2-0.2-2.4,0.7-3.1,1.7c-0.8,1-1.9,3.2-2.2,5c-0.3-1.8-0.6-3.6-0.8-5.5c1.5-1.8,5-2.8,6.2-5.1
		c0.5-0.9,0.7-2.5-0.5-2.9c-1-0.3-2.3,0.8-3,1.4c-1.2,1-2.3,2.6-3,4.2c-0.1-0.7-0.2-1.5-0.2-2.2c-0.1-0.9-0.2-1.9-0.2-2.8
		c0.6-0.6,1.7-1.7,3-2.6c1.6-1.1,3.5-2,3.4-4c0-1.8-1.8-4.1-3.7-2.1c-1.1,1.2-2.3,3.4-2.9,5.5c-0.1-1.8-0.2-3.6-0.2-5.4
		c1.1-0.9,1.9-1.8,3.8-2.8c1.6-0.8,4.1-1.2,4.2-3.1C282.5,100,280.2,99.2,278.4,100.5z"/>
	<g>
		<g>
			<linearGradient id="SVGID_2_" gradientUnits="userSpaceOnUse" x1="229.3371" y1="110.224" x2="264.1135" y2="110.224">
				<stop  offset="0" style="stop-color:#FFC56A"/>
				<stop  offset="1" style="stop-color:#FF5645"/>
			</linearGradient>
			<polygon class="st2" points="256.7,127.6 229.3,120.2 236.7,92.8 264.1,100.2 			"/>
		</g>
		<polygon class="st3" points="262.9,100.9 256,126.4 230.6,119.5 230.6,119.5 230.6,119.5 237.4,94 		"/>
		<path class="st4" d="M243,106c1.7,0.5,3.5-0.6,4-2.3c0.5-1.7-0.6-3.5-2.3-4c-1.7-0.5-3.5,0.6-4,2.3
			C240.3,103.7,241.3,105.5,243,106z"/>
		<g>
			<linearGradient id="SVGID_3_" gradientUnits="userSpaceOnUse" x1="230.552" y1="116.1752" x2="245.799" y2="116.1752">
				<stop  offset="0" style="stop-color:#FFC56A"/>
				<stop  offset="1" style="stop-color:#FF5645"/>
			</linearGradient>
			<path class="st5" d="M244.5,112.9c-1-1.5-2.6-2.7-4.5-3.2c-2.6-0.7-5.3,0-7.2,1.6l-2.2,8.3l12.7,3.4l0.2,0c1-1,1.8-2.2,2.1-3.6
				C246.1,117,245.7,114.7,244.5,112.9z"/>
		</g>
		<g>
			
				<linearGradient id="SVGID_4_" gradientUnits="userSpaceOnUse" x1="279.2697" y1="516.6615" x2="295.4619" y2="516.6615" gradientTransform="matrix(0.9656 0.2599 -0.2599 0.9656 107.264 -457.678)">
				<stop  offset="0" style="stop-color:#FFC56A"/>
				<stop  offset="1" style="stop-color:#FF5645"/>
			</linearGradient>
			<path class="st6" d="M260.2,111l-4.1,15.3l-13.5-3.6c-0.9-2.1-1.1-4.6-0.5-7c1.5-5.7,7.4-9.1,13.2-7.6
				C257.2,108.7,258.9,109.7,260.2,111z"/>
		</g>
	</g>
	<path class="st0" d="M65.4,182.1c13,3.9,43.1,0.7,52.4-1.3c9.3-2,10.3-3.7,18.4-1.3c8,2.3,0,4,13.7,2.3c13.7-1.7,16-2,20.4-4.3
		c4.3-2.3-8.3-4-16.7-4s-45.4,2-50.4,2s-39.1-0.3-43.1-3.3S46.7,176.4,65.4,182.1z"/>
	<g>
		<g>
			
				<linearGradient id="SVGID_5_" gradientUnits="userSpaceOnUse" x1="289.3223" y1="-400.3524" x2="316.0319" y2="-400.3524" gradientTransform="matrix(0.9439 -0.3301 0.3301 0.9439 40.4006 590.0379)">
				<stop  offset="0" style="stop-color:#FFC56A"/>
				<stop  offset="1" style="stop-color:#FF5645"/>
			</linearGradient>
			<path class="st7" d="M201.7,96.1l8.4,24l-24,8.4l-8.4-24L201.7,96.1 M202.1,95.2l-25.2,8.8l8.8,25.2l25.2-8.8L202.1,95.2
				L202.1,95.2z"/>
		</g>
		<g>
			<polyline class="st3" points="201.7,96.1 210.1,120 186.2,128.4 177.8,104.4 201.7,96.1 			"/>
		</g>
		<g>
			
				<linearGradient id="SVGID_6_" gradientUnits="userSpaceOnUse" x1="287.9868" y1="-413.0393" x2="291.9932" y2="-413.0393" gradientTransform="matrix(0.9439 -0.3301 0.3301 0.9439 40.4006 590.0379)">
				<stop  offset="0" style="stop-color:#FFC56A"/>
				<stop  offset="1" style="stop-color:#FF5645"/>
			</linearGradient>
			<path class="st8" d="M179.4,106l-1.9,0.7c-0.5,0.2-1.1-0.1-1.3-0.6l-0.7-1.9c-0.2-0.5,0.1-1.1,0.6-1.3l1.9-0.7
				c0.5-0.2,1.1,0.1,1.3,0.6l0.7,1.9C180.2,105.3,179.9,105.8,179.4,106z"/>
		</g>
		<g>
			
				<linearGradient id="SVGID_7_" gradientUnits="userSpaceOnUse" x1="313.3607" y1="-413.0395" x2="317.3671" y2="-413.0395" gradientTransform="matrix(0.9439 -0.3301 0.3301 0.9439 40.4006 590.0379)">
				<stop  offset="0" style="stop-color:#FFC56A"/>
				<stop  offset="1" style="stop-color:#FF5645"/>
			</linearGradient>
			<path class="st9" d="M203.3,97.6l-1.9,0.7c-0.5,0.2-1.1-0.1-1.3-0.6l-0.7-1.9c-0.2-0.5,0.1-1.1,0.6-1.3l1.9-0.7
				c0.5-0.2,1.1,0.1,1.3,0.6l0.7,1.9C204.1,96.9,203.9,97.4,203.3,97.6z"/>
		</g>
		<g>
			
				<linearGradient id="SVGID_8_" gradientUnits="userSpaceOnUse" x1="287.987" y1="-388.3331" x2="291.9936" y2="-388.3331" gradientTransform="matrix(0.9439 -0.3301 0.3301 0.9439 40.4006 590.0379)">
				<stop  offset="0" style="stop-color:#FFC56A"/>
				<stop  offset="1" style="stop-color:#FF5645"/>
			</linearGradient>
			<path class="st10" d="M187.5,129.3l-1.9,0.7c-0.5,0.2-1.1-0.1-1.3-0.6l-0.7-1.9c-0.2-0.5,0.1-1.1,0.6-1.3l1.9-0.7
				c0.5-0.2,1.1,0.1,1.3,0.6l0.7,1.9C188.3,128.6,188.1,129.1,187.5,129.3z"/>
		</g>
		<g>
			
				<linearGradient id="SVGID_9_" gradientUnits="userSpaceOnUse" x1="313.3609" y1="-387.6656" x2="317.3674" y2="-387.6656" gradientTransform="matrix(0.9439 -0.3301 0.3301 0.9439 40.4006 590.0379)">
				<stop  offset="0" style="stop-color:#FFC56A"/>
				<stop  offset="1" style="stop-color:#FF5645"/>
			</linearGradient>
			<path class="st11" d="M211.7,121.6l-1.9,0.7c-0.5,0.2-1.1-0.1-1.3-0.6l-0.7-1.9c-0.2-0.5,0.1-1.1,0.6-1.3l1.9-0.7
				c0.5-0.2,1.1,0.1,1.3,0.6l0.7,1.9C212.5,120.8,212.2,121.4,211.7,121.6z"/>
		</g>
		<g>
			<g>
				
					<linearGradient id="SVGID_10_" gradientUnits="userSpaceOnUse" x1="297.6689" y1="-412.8724" x2="298.3368" y2="-412.8724" gradientTransform="matrix(0.9439 -0.3301 0.3301 0.9439 40.4006 590.0379)">
					<stop  offset="0" style="stop-color:#FFC56A"/>
					<stop  offset="1" style="stop-color:#FF5645"/>
				</linearGradient>
				<polygon class="st12" points="185.8,102 185.1,102.2 185,101.9 185.7,101.7 				"/>
			</g>
			<g>
				
					<linearGradient id="SVGID_11_" gradientUnits="userSpaceOnUse" x1="297.6689" y1="-400.0184" x2="298.337" y2="-400.0184" gradientTransform="matrix(0.9439 -0.3301 0.3301 0.9439 40.4006 590.0379)">
					<stop  offset="0" style="stop-color:#FFC56A"/>
					<stop  offset="1" style="stop-color:#FF5645"/>
				</linearGradient>
				<path class="st13" d="M193.9,125.3l-0.6,0.2l-0.2-0.6l0.6-0.2L193.9,125.3z M193.5,124.1l-0.6,0.2l-0.2-0.6l0.6-0.2L193.5,124.1
					z M193.1,122.9l-0.6,0.2l-0.2-0.6l0.6-0.2L193.1,122.9z M192.6,121.7l-0.6,0.2l-0.2-0.6l0.6-0.2L192.6,121.7z M192.2,120.4
					l-0.6,0.2l-0.2-0.6l0.6-0.2L192.2,120.4z M191.8,119.2l-0.6,0.2l-0.2-0.6l0.6-0.2L191.8,119.2z M191.4,118l-0.6,0.2l-0.2-0.6
					l0.6-0.2L191.4,118z M190.9,116.7l-0.6,0.2l-0.2-0.6l0.6-0.2L190.9,116.7z M190.5,115.5l-0.6,0.2l-0.2-0.6l0.6-0.2L190.5,115.5z
					 M190.1,114.3l-0.6,0.2l-0.2-0.6l0.6-0.2L190.1,114.3z M189.6,113.1l-0.6,0.2l-0.2-0.6l0.6-0.2L189.6,113.1z M189.2,111.8
					l-0.6,0.2l-0.2-0.6l0.6-0.2L189.2,111.8z M188.8,110.6l-0.6,0.2l-0.2-0.6l0.6-0.2L188.8,110.6z M188.3,109.4l-0.6,0.2l-0.2-0.6
					l0.6-0.2L188.3,109.4z M187.9,108.1l-0.6,0.2l-0.2-0.6l0.6-0.2L187.9,108.1z M187.5,106.9l-0.6,0.2l-0.2-0.6l0.6-0.2
					L187.5,106.9z M187.1,105.7l-0.6,0.2l-0.2-0.6l0.6-0.2L187.1,105.7z M186.6,104.5l-0.6,0.2l-0.2-0.6l0.6-0.2L186.6,104.5z
					 M186.2,103.2l-0.6,0.2l-0.2-0.6l0.6-0.2L186.2,103.2z"/>
			</g>
			<g>
				
					<linearGradient id="SVGID_12_" gradientUnits="userSpaceOnUse" x1="297.6692" y1="-387.1647" x2="298.337" y2="-387.1647" gradientTransform="matrix(0.9439 -0.3301 0.3301 0.9439 40.4006 590.0379)">
					<stop  offset="0" style="stop-color:#FFC56A"/>
					<stop  offset="1" style="stop-color:#FF5645"/>
				</linearGradient>
				<polygon class="st14" points="194.3,126.3 193.6,126.5 193.5,126.2 194.1,126 				"/>
			</g>
		</g>
		<g>
			<g>
				
					<linearGradient id="SVGID_13_" gradientUnits="userSpaceOnUse" x1="306.3495" y1="-412.8725" x2="307.0173" y2="-412.8725" gradientTransform="matrix(0.9439 -0.3301 0.3301 0.9439 40.4006 590.0379)">
					<stop  offset="0" style="stop-color:#FFC56A"/>
					<stop  offset="1" style="stop-color:#FF5645"/>
				</linearGradient>
				<polygon class="st15" points="194,99.1 193.3,99.4 193.2,99 193.8,98.8 				"/>
			</g>
			<g>
				
					<linearGradient id="SVGID_14_" gradientUnits="userSpaceOnUse" x1="306.3495" y1="-400.0185" x2="307.0175" y2="-400.0185" gradientTransform="matrix(0.9439 -0.3301 0.3301 0.9439 40.4006 590.0379)">
					<stop  offset="0" style="stop-color:#FFC56A"/>
					<stop  offset="1" style="stop-color:#FF5645"/>
				</linearGradient>
				<path class="st16" d="M202.1,122.5l-0.6,0.2l-0.2-0.6l0.6-0.2L202.1,122.5z M201.7,121.2l-0.6,0.2l-0.2-0.6l0.6-0.2L201.7,121.2
					z M201.3,120l-0.6,0.2l-0.2-0.6l0.6-0.2L201.3,120z M200.8,118.8l-0.6,0.2l-0.2-0.6l0.6-0.2L200.8,118.8z M200.4,117.6l-0.6,0.2
					l-0.2-0.6l0.6-0.2L200.4,117.6z M200,116.3l-0.6,0.2l-0.2-0.6l0.6-0.2L200,116.3z M199.5,115.1l-0.6,0.2l-0.2-0.6l0.6-0.2
					L199.5,115.1z M199.1,113.9l-0.6,0.2l-0.2-0.6l0.6-0.2L199.1,113.9z M198.7,112.6l-0.6,0.2l-0.2-0.6l0.6-0.2L198.7,112.6z
					 M198.3,111.4l-0.6,0.2l-0.2-0.6l0.6-0.2L198.3,111.4z M197.8,110.2l-0.6,0.2l-0.2-0.6l0.6-0.2L197.8,110.2z M197.4,109
					l-0.6,0.2l-0.2-0.6l0.6-0.2L197.4,109z M197,107.7l-0.6,0.2l-0.2-0.6l0.6-0.2L197,107.7z M196.5,106.5l-0.6,0.2l-0.2-0.6
					l0.6-0.2L196.5,106.5z M196.1,105.3l-0.6,0.2l-0.2-0.6l0.6-0.2L196.1,105.3z M195.7,104.1l-0.6,0.2l-0.2-0.6l0.6-0.2
					L195.7,104.1z M195.2,102.8l-0.6,0.2l-0.2-0.6l0.6-0.2L195.2,102.8z M194.8,101.6l-0.6,0.2l-0.2-0.6l0.6-0.2L194.8,101.6z
					 M194.4,100.4l-0.6,0.2l-0.2-0.6l0.6-0.2L194.4,100.4z"/>
			</g>
			<g>
				
					<linearGradient id="SVGID_15_" gradientUnits="userSpaceOnUse" x1="306.3497" y1="-387.1648" x2="307.0175" y2="-387.1648" gradientTransform="matrix(0.9439 -0.3301 0.3301 0.9439 40.4006 590.0379)">
					<stop  offset="0" style="stop-color:#FFC56A"/>
					<stop  offset="1" style="stop-color:#FF5645"/>
				</linearGradient>
				<polygon class="st17" points="202.4,123.4 201.8,123.6 201.7,123.3 202.3,123.1 				"/>
			</g>
		</g>
		<g>
			<g>
				
					<linearGradient id="SVGID_16_" gradientUnits="userSpaceOnUse" x1="289.3224" y1="-395.6783" x2="289.6564" y2="-395.6783" gradientTransform="matrix(0.9439 -0.3301 0.3301 0.9439 40.4006 590.0379)">
					<stop  offset="0" style="stop-color:#FFC56A"/>
					<stop  offset="1" style="stop-color:#FF5645"/>
				</linearGradient>
				<polygon class="st18" points="183.3,121.3 183,121.4 182.8,120.7 183.1,120.6 				"/>
			</g>
			<g>
				
					<linearGradient id="SVGID_17_" gradientUnits="userSpaceOnUse" x1="290.324" y1="-395.6783" x2="315.0303" y2="-395.6783" gradientTransform="matrix(0.9439 -0.3301 0.3301 0.9439 40.4006 590.0379)">
					<stop  offset="0" style="stop-color:#FFC56A"/>
					<stop  offset="1" style="stop-color:#FF5645"/>
				</linearGradient>
				<path class="st19" d="M207.3,112.9l-0.6,0.2l-0.2-0.6l0.6-0.2L207.3,112.9z M206,113.3l-0.6,0.2l-0.2-0.6l0.6-0.2L206,113.3z
					 M204.7,113.8l-0.6,0.2l-0.2-0.6l0.6-0.2L204.7,113.8z M203.5,114.2l-0.6,0.2l-0.2-0.6l0.6-0.2L203.5,114.2z M202.2,114.6
					l-0.6,0.2l-0.2-0.6l0.6-0.2L202.2,114.6z M201,115.1l-0.6,0.2l-0.2-0.6l0.6-0.2L201,115.1z M199.7,115.5l-0.6,0.2l-0.2-0.6
					l0.6-0.2L199.7,115.5z M198.4,116l-0.6,0.2l-0.2-0.6l0.6-0.2L198.4,116z M197.2,116.4l-0.6,0.2l-0.2-0.6l0.6-0.2L197.2,116.4z
					 M195.9,116.8l-0.6,0.2l-0.2-0.6l0.6-0.2L195.9,116.8z M194.6,117.3l-0.6,0.2l-0.2-0.6l0.6-0.2L194.6,117.3z M193.4,117.7
					l-0.6,0.2l-0.2-0.6l0.6-0.2L193.4,117.7z M192.1,118.2l-0.6,0.2l-0.2-0.6l0.6-0.2L192.1,118.2z M190.9,118.6l-0.6,0.2l-0.2-0.6
					l0.6-0.2L190.9,118.6z M189.6,119.1l-0.6,0.2l-0.2-0.6l0.6-0.2L189.6,119.1z M188.3,119.5l-0.6,0.2l-0.2-0.6l0.6-0.2
					L188.3,119.5z M187.1,119.9l-0.6,0.2l-0.2-0.6l0.6-0.2L187.1,119.9z M185.8,120.4l-0.6,0.2L185,120l0.6-0.2L185.8,120.4z
					 M184.6,120.8l-0.6,0.2l-0.2-0.6l0.6-0.2L184.6,120.8z"/>
			</g>
			<g>
				
					<linearGradient id="SVGID_18_" gradientUnits="userSpaceOnUse" x1="315.6979" y1="-395.6784" x2="316.0319" y2="-395.6784" gradientTransform="matrix(0.9439 -0.3301 0.3301 0.9439 40.4006 590.0379)">
					<stop  offset="0" style="stop-color:#FFC56A"/>
					<stop  offset="1" style="stop-color:#FF5645"/>
				</linearGradient>
				<polygon class="st20" points="208.2,112.6 207.9,112.7 207.7,112 208,111.9 				"/>
			</g>
		</g>
		<g>
			<g>
				
					<linearGradient id="SVGID_19_" gradientUnits="userSpaceOnUse" x1="289.3223" y1="-405.0265" x2="289.6562" y2="-405.0265" gradientTransform="matrix(0.9439 -0.3301 0.3301 0.9439 40.4006 590.0379)">
					<stop  offset="0" style="stop-color:#FFC56A"/>
					<stop  offset="1" style="stop-color:#FF5645"/>
				</linearGradient>
				<polygon class="st21" points="180.2,112.4 179.9,112.5 179.7,111.9 180,111.8 				"/>
			</g>
			<g>
				
					<linearGradient id="SVGID_20_" gradientUnits="userSpaceOnUse" x1="290.3239" y1="-405.0266" x2="315.0301" y2="-405.0266" gradientTransform="matrix(0.9439 -0.3301 0.3301 0.9439 40.4006 590.0379)">
					<stop  offset="0" style="stop-color:#FFC56A"/>
					<stop  offset="1" style="stop-color:#FF5645"/>
				</linearGradient>
				<path class="st22" d="M204.2,104.1l-0.6,0.2l-0.2-0.6l0.6-0.2L204.2,104.1z M202.9,104.5l-0.6,0.2l-0.2-0.6l0.6-0.2L202.9,104.5
					z M201.6,104.9l-0.6,0.2l-0.2-0.6l0.6-0.2L201.6,104.9z M200.4,105.4l-0.6,0.2l-0.2-0.6l0.6-0.2L200.4,105.4z M199.1,105.8
					l-0.6,0.2l-0.2-0.6l0.6-0.2L199.1,105.8z M197.9,106.3l-0.6,0.2l-0.2-0.6l0.6-0.2L197.9,106.3z M196.6,106.7l-0.6,0.2l-0.2-0.6
					l0.6-0.2L196.6,106.7z M195.3,107.1l-0.6,0.2l-0.2-0.6l0.6-0.2L195.3,107.1z M194.1,107.6l-0.6,0.2l-0.2-0.6l0.6-0.2
					L194.1,107.6z M192.8,108l-0.6,0.2l-0.2-0.6l0.6-0.2L192.8,108z M191.6,108.5l-0.6,0.2l-0.2-0.6l0.6-0.2L191.6,108.5z
					 M190.3,108.9l-0.6,0.2l-0.2-0.6l0.6-0.2L190.3,108.9z M189,109.3l-0.6,0.2l-0.2-0.6l0.6-0.2L189,109.3z M187.8,109.8l-0.6,0.2
					l-0.2-0.6l0.6-0.2L187.8,109.8z M186.5,110.2l-0.6,0.2l-0.2-0.6l0.6-0.2L186.5,110.2z M185.3,110.7l-0.6,0.2l-0.2-0.6l0.6-0.2
					L185.3,110.7z M184,111.1l-0.6,0.2l-0.2-0.6l0.6-0.2L184,111.1z M182.7,111.6l-0.6,0.2l-0.2-0.6l0.6-0.2L182.7,111.6z
					 M181.5,112l-0.6,0.2l-0.2-0.6l0.6-0.2L181.5,112z"/>
			</g>
			<g>
				
					<linearGradient id="SVGID_21_" gradientUnits="userSpaceOnUse" x1="315.6979" y1="-405.0267" x2="316.0318" y2="-405.0267" gradientTransform="matrix(0.9439 -0.3301 0.3301 0.9439 40.4006 590.0379)">
					<stop  offset="0" style="stop-color:#FFC56A"/>
					<stop  offset="1" style="stop-color:#FF5645"/>
				</linearGradient>
				<polygon class="st23" points="205.1,103.7 204.8,103.8 204.6,103.2 204.9,103.1 				"/>
			</g>
		</g>
	</g>
	<g>
		<polygon class="st3" points="208.9,99.9 227.7,119 223.9,123 204.7,103.5 		"/>
		<g>
			<linearGradient id="SVGID_22_" gradientUnits="userSpaceOnUse" x1="204.0722" y1="111.4181" x2="228.4267" y2="111.4181">
				<stop  offset="0" style="stop-color:#FFC56A"/>
				<stop  offset="1" style="stop-color:#FF5645"/>
			</linearGradient>
			<path class="st24" d="M228.3,118.5l-7.2-7.2l5.2-5.2l-4.9-4.9l-5.2,5.2l-7.2-7.2c-0.3-0.2-0.8-0.2-1.1,0l-3.8,3.8
				c-0.2,0.3-0.2,0.8,0,1.1l7.2,7.2l-6.6,6.6c-0.6,0.6-0.6,1.5,0,2.1l2.7,2.7c0.6,0.6,1.5,0.6,2.1,0l6.6-6.6l7.2,7.2
				c0.3,0.3,0.8,0.3,1.1,0l3.8-3.8C228.5,119.3,228.5,118.8,228.3,118.5z M210.8,108.9l2-2l-0.9-0.9l-2,2l-1.4-1.5l2-2l-1.1-0.8
				l-1.8,2l-2-2l3.1-3.1l6.9,6.9l-3.1,3.1L210.8,108.9z M223.9,122l-2-2l2-2l-0.9-0.9l-2,2l-1.4-1.4l2-2l-0.9-0.9l-2,2l-1.7-1.7
				l3.1-3.1l6.9,6.9L223.9,122z"/>
		</g>
		<g>
			<linearGradient id="SVGID_23_" gradientUnits="userSpaceOnUse" x1="222.2045" y1="102.4283" x2="228.0068" y2="102.4283">
				<stop  offset="0" style="stop-color:#FFC56A"/>
				<stop  offset="1" style="stop-color:#FF5645"/>
			</linearGradient>
			<path class="st25" d="M227.2,105.1l0.8-5.2c0-0.2-0.2-0.3-0.3-0.3l-5.2,0.8c-0.2,0-0.2,0.2-0.3,0.2l4.9,4.7
				C227.2,105.3,227.2,105.1,227.2,105.1z"/>
		</g>
	</g>
	<g>
		<g>
			<linearGradient id="SVGID_24_" gradientUnits="userSpaceOnUse" x1="261.5461" y1="178.0567" x2="165.5068" y2="110.8092">
				<stop  offset="0" style="stop-color:#FFEE8B"/>
				<stop  offset="1" style="stop-color:#FFB645"/>
			</linearGradient>
			<rect x="161.7" y="116.3" class="st26" width="103.7" height="56.3"/>
		</g>
		<rect x="161.7" y="116.3" class="st27" width="31.5" height="56.3"/>
		<polygon class="st27" points="265.4,116.3 265.4,141.2 210.5,141.2 193.1,116.3 		"/>
		<polygon class="st28" points="193.1,116.3 265.6,116.3 282.9,134 210.5,134 		"/>
		<polygon class="st28" points="161.8,116.3 193.1,116.3 175.6,134.6 145.7,134.6 		"/>
	</g>
	<g>
		<linearGradient id="SVGID_25_" gradientUnits="userSpaceOnUse" x1="177.8336" y1="164.8869" x2="83.5678" y2="181.2976">
			<stop  offset="0" style="stop-color:#9BABFD"/>
			<stop  offset="1" style="stop-color:#EEA4B6"/>
		</linearGradient>
		<path class="st29" d="M151.3,164.3c7.7-3.1,15.6-4.4,23.9-4.3c4.5,0.1,8.4,1.2,12.7,2.5c1.7,0.5,3.3,1.1,5.1,1.4
			c0.8,0.1,1.7,0,2.3,0.3c-3.4,1.3-6.5,3.1-10.1,4.3c-4,1.3-8.4,2.5-12.5,3.1c-7.1,1-14.1,2.7-21,4.4c-3.4,0.8-8.6,1.9-11.4-1.1
			c-1.1-1.1-1.5-2.9-1.9-4.4c2.6-2.5,6.5-2.9,9.6-4.5C149.2,165.2,149.9,163.9,151.3,164.3z"/>
		<linearGradient id="SVGID_26_" gradientUnits="userSpaceOnUse" x1="66.3399" y1="108.1648" x2="107.9388" y2="192.8892">
			<stop  offset="0" style="stop-color:#F58792"/>
			<stop  offset="1" style="stop-color:#B43661"/>
		</linearGradient>
		<path class="st30" d="M84.8,166.2c-4.6-1.5-8.8-3-13.6-4.1c-7.9-1.9-15.4-6.9-22.4-11c-9.7-5.7-24.4-13.3-29.8-23.4
			c4.4-1.1,11.4,2.1,15.4,3.4c7.4,2.5,14.1,5.6,21,9.3c7.3,3.9,13.8,9.3,21,13.3c-0.2-3.9-6.3-7.8-8.9-10.4
			c-5.6-5.7-9.8-12.3-13.9-19.2c-3.4-5.8-6.9-11.9-9.5-18.1c-1.6-3.9-5.3-10.5-5-14.8c5.9,3.5,10.7,8.7,14.9,14
			c4.7,5.9,9.9,12.1,13.6,18.7c2.1,3.8,8.2,18.7,13.8,17.5c-0.6-14.9-8.6-29.7-11.2-44.4c-2.1-11.8-3.6-25.1-0.3-36.8
			c4.5,5.8,6.3,16.5,8.3,23.5c2.9,10.2,5.9,20.5,8.1,31c1.9,9,5.8,17.4,7.8,26.3c-2-13.1-2.9-27-0.3-39.9c1.2-5.7,2.5-11.1,3.9-16.7
			c0.6-2.5,1-5.4,2.5-7.4c2.9,4.6,2.3,13.3,2.9,18.6c1,8,2.3,16.2,1.7,24.3c-0.6,8.9-0.6,18.4-1.8,27.3c-1.3-7.8,3.4-20.5,6.6-27.7
			c2.3-5.1,5.8-13.9,10.8-16.7c2,7.9-1.8,19.9-3.3,27.6c-1.7,8.5-4.7,19.7-9.3,27.1c-2.8,4.4-7.5,9.1-12.6,10.8
			C92.7,169.1,86.2,166.7,84.8,166.2z"/>
		<linearGradient id="SVGID_27_" gradientUnits="userSpaceOnUse" x1="147.1385" y1="66.6931" x2="147.1385" y2="203.3393">
			<stop  offset="0" style="stop-color:#774BE0"/>
			<stop  offset="1" style="stop-color:#45278E"/>
		</linearGradient>
		<path class="st31" d="M157.6,75.4c-3,1.4-4.9,5-6.5,7.7c-0.2,0.3-0.5,1-0.9,1.6c0.2-1.8,0.4-3.5,0.6-5.3c0.2-1.2,0.3-2.3,0.5-3.5
			c0.8-0.4,2.1-1.6,3.9-2.6c2.1-1.1,3.5-0.9,4.3-3.7c0.7-2.6-0.2-5.6-3.2-4.1c-2.5,1.2-3.6,4.2-4.5,7c0.4-3.6,0.7-7.2,0.4-10.8
			c4.6-8.5,0.8-21.4-5.3-28.1c-0.6-0.6-1.3-1.3-2.1-1.4c-1.9-0.3-3.3,1.8-3.5,3.6c-0.3,2.6,0.5,5.3,1.8,7.6c1.3,2.3,2.9,4.4,4.3,6.7
			c1.2,1.9,2,3.9,2.7,5.8c0,0,0,0.1,0,0.1c0.8,3.6,0.8,7.2,0.6,10.8c-0.5-2.2-1.9-5-2.4-6c-1.6-3-3.9-5.7-7-7.1
			c-0.6-0.3-1.3-0.5-1.8-0.2c-0.7,0.4-0.9,1.3-0.8,2.1c0.1,2.8,1.3,5.5,3.2,7.5c2.5,2.5,5.9,4.1,8.5,6.6c0,0,0.1-0.1,0.1-0.1
			c-0.3,2.1-0.6,4.3-1,6.4c-1.1-2.7-3.2-5.6-4.3-6.7c-0.9-0.9-2-1.7-3.2-2c-1.3-0.2-2.7,0.2-3.3,1.4c-0.3,0.7-0.4,1.5-0.2,2.2
			c0.5,2.3,2.6,4,4.5,5.4c1.9,1.4,3.8,2.9,5.8,4.3c0,0.3-0.1,0.5-0.1,0.8c-0.5,3.7-1,7.4-1.4,11.1c-0.5-2.1-1.1-4.1-1.9-6
			c-1.6-3.9-4-7.6-7.3-10.2c-1.3-1-2.8-1.9-4.5-2.1c-0.7-0.1-1.4,0.1-1.8,0.6c-0.2,0.3-0.2,0.7-0.3,1.1c-0.1,2.3,1.2,4.4,2.7,6.2
			c2.4,2.7,5.5,4.7,8.3,7c1.6,1.3,3.4,2.9,4.5,4.7c-0.4,3.9-0.8,7.7-1,11.6c-0.7-3.9-2.7-8.3-4.3-11.4c-1.5-3-4-6-7.3-6.2
			c-0.5,0-1,0-1.4,0.2c-1.4,0.6-1.8,2.5-1.4,4c0.5,1.9,1.8,3.4,3.4,4.7c1.5,1.2,3.2,2.2,4.7,3.4c2.7,2.1,4.6,4.8,6.2,7.8
			c-0.2,3-0.3,6-0.3,9c-0.7-1.8-1.6-3.6-2.1-4.5c-1.7-2.9-4-5.5-6.7-7.5c-0.9-0.7-2.1-1.3-3.2-0.9c-0.9,0.4-1.4,1.4-1.6,2.4
			c-0.5,2.5,0.3,5.2,2,7.1c1.1,1.2,2.6,2,4.1,2.8c1.5,0.8,3,1.6,4.5,2.5c1.1,0.6,2.1,1.4,3,2.4c0,3.3,0.1,6.6,0.3,10
			c-0.5-1.3-1-2.6-1.7-3.8c-1.5-2.7-3.5-5.2-6.3-6.7c-0.9-0.5-2.1-0.9-3.1-0.5c-1.4,0.5-2,2.4-1.5,3.8c0.5,1.4,1.7,2.5,3,3.3
			c1.2,0.7,2.5,1.3,3.9,1.7c1,0.3,2,0.5,2.8,1c1.1,0.6,1.8,1.7,2.6,2.7c0.2,0.2,0.3,0.4,0.5,0.6c0.2,2.6,0.4,5.2,0.7,7.8
			c-1.5-2.4-3.9-4.3-6.3-5.5c-1.5-0.7-3.5-1.1-4.6,0.2c-0.3,0.4-0.5,0.9-0.6,1.4c-0.1,1.9,1.5,3.4,3.3,4.1c1.8,0.6,3.7,0.6,5.5,1.1
			c1,0.3,2,1.3,3,1.7c0.6,4.1,1.4,8.2,2.6,12.1c0.4,1.2,1.9,0.7,1.8-0.4c-0.4-3.1-0.8-6.2-1.3-9.4c1.6-0.2,7.1-2.6,8-2.9
			c1.4-0.5,2.8-1.7,2.8-3.2c0-1.5-1.5-2.6-2.9-2.7c-1.5-0.1-2.9,0.6-4,1.4c-0.7,0.5-3.2,3.2-4.2,5.2c-0.4-3.2-0.8-6.4-1.1-9.6
			c0.7-0.6,1.5-1.2,2.3-1.6c1.4-0.6,2.9-0.8,4.3-1.5c1.4-0.6,2.6-2,2.5-3.5c-0.2-1.8-2.4-2.9-4.1-2.4c-1.8,0.4-3.1,1.9-4.1,3.4
			c-0.3,0.5-0.8,1.2-1.2,1.9c0-0.3,0-0.5-0.1-0.8c-0.1-1.4-0.1-2.9-0.2-4.3c1.9-0.8,3.8-2.9,5.5-4c1.6-1.1,3.4-2.1,4.4-3.8
			c1-1.7,0.8-4.3-1-5.1c-1.6-0.8-3.5,0.3-4.8,1.5c-1.3,1.4-3.4,4.4-4.3,7.2c0-3.1,0-6.1,0.1-9.2c2.6-2.3,7.7-2.6,10-5.8
			c0.9-1.3,1.6-3.8,0-5c-1.3-0.9-3.5,0.5-4.7,1.1c-2,1.1-3.9,3.2-5.2,5.6c0.1-1.2,0.1-2.4,0.2-3.6c0.1-1.5,0.2-3.1,0.3-4.6
			c1-0.8,2.9-2.1,4.8-3c2.5-1.2,5.4-1.9,5.8-5.2c0.4-3-1.6-7.4-4.8-4.8c-1.8,1.4-4,4.6-5.3,7.8c0.3-3,0.6-5.9,0.9-8.9
			c1.8-1,3.1-2.2,6.1-3.1c2.4-0.7,6-0.4,6.7-3.3C163.6,76.2,160.6,73.9,157.6,75.4z"/>
		<linearGradient id="SVGID_28_" gradientUnits="userSpaceOnUse" x1="74.7721" y1="65.8029" x2="74.7721" y2="202.4495">
			<stop  offset="0" style="stop-color:#774BE0"/>
			<stop  offset="1" style="stop-color:#45278E"/>
		</linearGradient>
		<path class="st32" d="M75.4,101.4c-2,2.7-2.1,6.3-2.5,9.3c0,0.3-0.1,1-0.1,1.7c-0.5-1.4-1-2.9-1.5-4.4c-0.3-1-0.6-1.9-1-2.9
			c0.5-0.7,1.1-2.3,2.3-4c1.4-2,2.6-2.5,2.2-5c-0.4-2.4-2.4-4.1-4.3-1.5c-1.7,2.2-1.4,5.1-1.1,7.7c-1-3-2.2-5.9-3.9-8.5
			c0.6-8.9-7.7-16.8-15.5-18.7c-0.7-0.2-1.6-0.3-2.4,0c-1.7,0.7-2.1,3-1.5,4.6c0.7,2.2,2.5,3.7,4.5,4.9c2,1.1,4.2,1.9,6.2,2.9
			c1.7,0.8,3.2,1.9,4.5,3.1c0,0,0,0.1,0.1,0.1c2.1,2.3,3.5,5,4.7,8c-1.3-1.4-3.5-2.8-4.4-3.4c-2.5-1.5-5.5-2.3-8.7-1.8
			c-0.6,0.1-1.2,0.3-1.6,0.8c-0.5,0.6-0.2,1.4,0.1,2c1.1,2.1,3.2,3.6,5.7,4.1c3.1,0.6,6.6,0.1,9.7,0.6c0,0,0-0.1,0-0.1
			c0.6,1.8,1.2,3.6,1.7,5.4c-2-1.5-4.8-2.6-6.3-2.9c-1.1-0.2-2.4-0.3-3.5,0.2c-1.2,0.5-2.2,1.6-2.3,2.8c0,0.7,0.3,1.3,0.7,1.8
			c1.3,1.5,3.7,1.7,5.9,1.8c2.2,0.1,4.4,0.3,6.6,0.3c0.1,0.2,0.1,0.4,0.2,0.6c1,3.1,2,6.2,3.1,9.3c-1.2-1.3-2.5-2.6-3.9-3.6
			c-2.9-2.2-6.3-3.8-10.1-4.1c-1.5-0.1-3.2,0-4.6,0.8c-0.6,0.3-1.2,0.8-1.3,1.4c-0.1,0.3,0.1,0.7,0.2,0.9c0.8,1.8,2.8,2.8,4.7,3.3
			c3.1,0.8,6.5,0.8,9.7,1.1c1.9,0.2,4,0.4,5.7,1.3c1.1,3.2,2.4,6.3,3.7,9.4c-2.1-2.6-5.5-5-8.1-6.5c-2.5-1.5-5.7-2.5-8.6-0.9
			c-0.4,0.2-0.8,0.5-1.1,0.9c-1,1.2-0.5,2.8,0.4,3.7c1.2,1.2,2.9,1.7,4.7,1.8c1.8,0.2,3.6,0,5.4,0.2c3.2,0.2,5.7,1.3,8.3,2.8
			c1,2.4,2.1,4.7,3.2,7c-1.3-1-2.8-1.9-3.5-2.3c-2.6-1.4-5.5-2.2-8.6-2.3c-1,0-2.3,0.1-3,1c-0.6,0.8-0.6,1.8-0.4,2.6
			c0.5,2.2,2.3,3.9,4.5,4.4c1.4,0.3,3,0.2,4.5,0c1.6-0.1,3.2-0.3,4.8-0.4c1.2-0.1,2.4,0,3.5,0.3c1.3,2.5,2.7,5,4.2,7.4
			c-0.9-0.8-1.9-1.5-2.9-2.1c-2.3-1.3-5-2.2-7.9-1.9c-1,0.1-2.1,0.4-2.8,1.2c-1,1.1-0.8,2.8,0.2,3.7c1,0.9,2.4,1,3.8,1
			c1.3-0.1,2.6-0.3,3.9-0.7c0.9-0.3,1.9-0.7,2.8-0.7c1.2-0.1,2.2,0.3,3.2,0.7c0.2,0.1,0.4,0.2,0.6,0.2c1.2,1.9,2.4,3.8,3.6,5.6
			c-2.2-1-5-1.3-7.5-0.9c-1.5,0.2-3.4,1-3.8,2.5c-0.1,0.5-0.1,1,0.1,1.4c0.6,1.5,2.6,1.8,4.4,1.4c1.7-0.4,3.4-1.4,5.1-2
			c1-0.3,2.2-0.1,3.2-0.3c2.1,2.9,4.3,5.6,6.9,8c0.7,0.7,1.9-0.4,1.3-1.3c-1.6-2.2-3.1-4.3-4.7-6.5c1.2-1,5-5.7,5.6-6.4
			c1-1.1,1.7-2.7,1.1-3.9c-0.6-1.1-2.2-1.2-3.5-0.6c-1.3,0.7-2.2,1.9-2.9,3.2c-0.4,0.7-1.4,4.1-1.5,6.2c-1.6-2.2-3.2-4.5-4.7-6.8
			c0.4-0.8,0.8-1.7,1.4-2.4c0.9-1.2,2.2-2.1,3.1-3.3c0.9-1.2,1.5-2.9,0.7-3.9c-0.9-1.3-3.1-1-4.4,0.3c-1.3,1.2-1.9,3-2.1,4.7
			c-0.1,0.5-0.2,1.3-0.3,2.1c-0.1-0.2-0.2-0.4-0.4-0.6c-0.6-1.1-1.2-2.1-1.8-3.2c1.3-1.5,2.1-4.1,3.1-5.9c1-1.7,2.1-3.4,2.3-5.2
			c0.2-1.8-1-3.7-2.9-3.4c-1.7,0.2-2.9,2-3.4,3.6c-0.6,1.7-1.1,5.1-0.8,7.7c-1.2-2.3-2.4-4.7-3.5-7.1c1.3-3.1,5.5-6,6.2-9.6
			c0.3-1.5-0.1-3.8-2-3.8c-1.5,0-2.8,2.1-3.5,3.3c-1.2,1.9-2,4.5-2.2,7c-0.4-0.9-0.8-1.9-1.3-2.9c-0.5-1.2-1-2.5-1.6-3.7
			c0.6-1.1,1.6-3.1,2.9-4.8c1.6-2.2,3.8-4.2,2.9-6.9c-0.9-2.5-4.2-4.8-6-1.2c-1,2.1-1.6,5.6-1.5,8.7c-0.9-2.4-1.8-4.8-2.7-7.3
			c1.2-1.7,1.7-3.3,3.9-5.5c1.8-1.8,4.9-3.5,4.4-6C80.8,98.9,77.4,98.7,75.4,101.4z"/>
		<linearGradient id="SVGID_29_" gradientUnits="userSpaceOnUse" x1="124.9428" y1="69.484" x2="112.7302" y2="162.6046">
			<stop  offset="0" style="stop-color:#9BABFD"/>
			<stop  offset="1" style="stop-color:#EEA4B6"/>
		</linearGradient>
		<path class="st33" d="M107.7,125.8c-1.1-15.4,1.1-30.3,6.1-44.9c2.7-7.9,7-14.3,11.8-21c1.9-2.7,3.9-5.3,5.4-8.2
			c0.6-1.3,1-3,1.9-4c0.4,6.9,1.8,13.3,1.8,20.3c0,7.9-0.3,16.3-1.7,24.1c-2.4,13.2-3.3,26.5-4.3,39.9c-0.5,6.6-1.6,16.4-8.5,19.7
			c-2.6,1.3-6,1-9,0.8c-3-6.1-1.4-13.2-2.6-19.6C108.2,130,106.4,128.1,107.7,125.8z"/>
		<linearGradient id="SVGID_30_" gradientUnits="userSpaceOnUse" x1="164.4911" y1="74.6708" x2="152.2784" y2="167.7914">
			<stop  offset="0" style="stop-color:#9BABFD"/>
			<stop  offset="1" style="stop-color:#EEA4B6"/>
		</linearGradient>
		<path class="st34" d="M132.6,144c6.4-14.1,15.4-26.1,26.8-36.6c6.1-5.6,13-9.2,20.4-12.9c3-1.5,6-2.7,8.7-4.7
			c1.2-0.9,2.3-2.1,3.6-2.6c-2.9,6.2-4.8,12.6-8.1,18.7c-3.8,6.9-8.1,14.2-13,20.3c-8.4,10.5-15.6,21.7-22.8,33
			c-3.6,5.6-9.2,13.6-16.8,13.3c-2.9-0.1-5.8-2-8.3-3.5c0.3-6.8,5.1-12.3,7.1-18.5C131,147.9,130.3,145.4,132.6,144z"/>
		<linearGradient id="SVGID_31_" gradientUnits="userSpaceOnUse" x1="102.6906" y1="66.5658" x2="90.478" y2="159.6863">
			<stop  offset="0" style="stop-color:#9BABFD"/>
			<stop  offset="1" style="stop-color:#EEA4B6"/>
		</linearGradient>
		<path class="st35" d="M97.1,165.9c-3.8-9.7-8.5-18.9-10.3-29.3c-1-5.8-2.7-11.5-3.6-17.3c-1-6.9-1.3-14-2.5-20.9
			c-1.5-9.1-3.7-18.9-2.8-28.1c0.8-8.5,3.8-16.8,4.9-25.2c7.4,0.3,14.8,7.4,19.7,12.3c3.2,3.2,6.1,5.7,6.7,10.2
			c3.2,23.1,9.7,47.4,8,70.8c-0.7,8.8-0.8,21.8-8.6,27.9C105.7,168.4,97.5,169.8,97.1,165.9z"/>
		<path class="st36" d="M135.3,153.2c-4.5-5,3.9-10.2,4.7-14.3c0.3-1.5,0.2-3.1,0.6-4.6c0.6-2.2,1.9-3.9,2.6-5.9
			c0.6-1.6,0.5-3.2,1-5.1c1.1-3.9,4-4.7,6.1-7.2c2-2.3,2.6-5.7,5.2-8c3.2-2.8,5.2-6.6,8.5-9.5c-0.8,3.5-0.2,7.4-2.3,10.5
			c-0.8,1.1-1.9,1.9-2.3,3.2c-0.4,1.3,0.4,3.2,0.4,4.6c-0.1,4.6-3.4,4.6-4.6,7.5c-0.6,1.5,0.1,4.6-0.2,6.4c-0.5,3-1.3,6-3.6,8.2
			c-0.9,0.9-2.2,1.3-2.6,2.4c-0.6,1.6,0,3.9-0.6,5.6c-1.1,3.3-4.4,4.3-5.8,6.6c-1.3,2-2.1,5.9-6,4.9
			C134.6,158,134.2,156.6,135.3,153.2z"/>
		<path class="st36" d="M97.9,168.3c-5-4.2-13.2-12.6-14.2-19.6c-0.4-3,0.6-3-1.1-5c-3-3.4-6.5-5-7.8-9.8c-0.9-3.6-1.1-8.1-0.3-11.8
			c0.6-2.6,1.9-3.6,0.9-6.1c-1.5-3.9-4.4-6.5-5.1-10.9c-0.5-3.1-0.2-6.3,0.2-9.4c0.3-2.1,1.4-3.2,1.9-5c0.9-3.1-1.7-5.9-2.2-9.2
			c-0.5-3.6,0.4-7.6,1.1-11.2c3.9,0.5,7.2,5.1,8.6,8.5c1.1,2.4,0.6,5.8,2.3,7.6c1.3,1.3,3.5,1.5,4.9,3.6c1.2,1.9,2,4.3,2.5,6.4
			c1,4.5,0,8.3,0,12.8c0,4.1,3.5,6.7,5.7,10.1c3.3,5.1,5,11,5.7,17c0.4,3.4-0.8,8.5,0.6,11.3c1,2,3.3,3.4,4.3,5.6
			c1.1,2.5,1.2,5.6,1.1,8.3C106.9,167.2,102.9,168.9,97.9,168.3z"/>
		<linearGradient id="SVGID_32_" gradientUnits="userSpaceOnUse" x1="138.0484" y1="112.1085" x2="138.0484" y2="221.6423">
			<stop  offset="0" style="stop-color:#E35A6B"/>
			<stop  offset="1" style="stop-color:#8F2775"/>
		</linearGradient>
		<path class="st37" d="M108.2,173.3c-1.1-4-0.3-9-0.3-13.2c0-11.4,1.4-23.8,5.2-34.6c3.4-9.7,6.6-19.5,10.6-28.9
			c3-7,6.3-15.9,12.4-21c0.1,3.7,0.5,7.5,0.4,11.2c-0.1,2.6-1,5.3-0.9,7.8c4.2-8.9,8.5-16.2,15.1-23.9c5.4-6.3,10.8-15.3,18-19.8
			c-0.2,8-2.5,17.5-5,25.2c-3.4,10.8-6.9,21.6-10.4,32.4c-5.3,16.3-12.6,31.2-20.6,46.5c-3.4,6.5-8.2,22.7-17.9,22.4
			C111.7,177.5,109.2,176.3,108.2,173.3z"/>
		
			<linearGradient id="SVGID_33_" gradientUnits="userSpaceOnUse" x1="287.8996" y1="20.5775" x2="287.8996" y2="130.1074" gradientTransform="matrix(1.1399 -7.250000e-02 -7.250000e-02 1.0376 -216.5077 112.3826)">
			<stop  offset="0" style="stop-color:#E35A6B"/>
			<stop  offset="1" style="stop-color:#8F2775"/>
		</linearGradient>
		<path class="st38" d="M109.1,175.6c-1.7-1.8-2.7-4.6-3.8-6.9c-3.1-6-5.7-13-6.4-19.9c-0.6-6.2-1.4-12.3-1.6-18.5
			c-0.1-4.6-0.6-10.4,1.6-14.9c1.1,1.9,2.3,3.8,3.3,5.8c0.7,1.4,0.8,3.1,1.6,4.4c0.1-6,0.7-11.2,2.5-17.3c1.5-5,2.3-11.5,5.4-16
			c2.1,4.3,3.3,10,3.9,14.9c0.9,6.8,1.8,13.6,2.6,20.4c1.3,10.3,1,20.4,0.4,30.9c-0.3,4.5,1.3,14.5-4.6,17.4
			C112.3,176.8,110.5,176.9,109.1,175.6z"/>
		<linearGradient id="SVGID_34_" gradientUnits="userSpaceOnUse" x1="111.6292" y1="66.6931" x2="111.6292" y2="203.3399">
			<stop  offset="0" style="stop-color:#774BE0"/>
			<stop  offset="1" style="stop-color:#45278E"/>
		</linearGradient>
		<path class="st39" d="M123.3,51.8c-4.4,1.8-8.1,7.9-9.1,13.4c-0.4-2-0.9-3.9-1.3-5.8c-0.1-0.3-0.2-0.6-0.2-1
			c2.4-4.3,10.4-13.4,6-18.8c-5.2,1.8-6.7,7.5-7,12c0,0.6-0.1,1.4-0.2,2.3c-0.8-3-1.8-6-2.8-8.9c1.3-1.3,3-3.5,4.1-5.8
			c0.8-1.6,3.5-8.5-1.4-6.8c-1.9,0.7-3.5,5.7-3.8,9.4c-0.8-2.1-1.6-4.1-2.5-6.2c-1-10.9,1.1-25.1-9.9-31.7C84-2.8,88,15,90.4,19.4
			c2.1,3.8,7.1,12.5,12.9,17c0.9,2.2,1.7,4.5,2.5,6.8c0.4,1.3,0.8,2.5,1.2,3.8c-4-7.1-12.2-21.1-17.4-15.1
			c-4.7,5.4,12.4,13,18.1,17.2c1.1,3.8,2.1,7.7,2.9,11.6c0.2,1,0.4,2,0.6,3c-1.9-3-3.1-7.2-5.9-9.5c-2.5-2.1-8.7-4.5-9.5-0.4
			c-1,5.8,7.2,7.9,11.2,9.6c2.8,1.2,3.8,2.8,4.7,2.7c0.9,4.9,1.5,9.9,1.9,14.9c-2.2-6.3-7-15.6-15-14.3c-1.2,10.4,10,10.7,15.1,15.6
			c0.4,5.1,0.5,10.2,0.3,15.3c0,0.1,0,0.1,0,0.2c-1.3-4.9-2.1-9.8-5.5-14c-3.1-3.8-10.1-6.2-8.5,1.2c1.2,5.4,6.1,7.9,10.1,11.3
			c1.8,1.5,2.9,3.3,3.8,4.1c-0.3,4.8-0.8,9.5-1.6,14.2c-2.5-8.3-8.5-25.3-17.4-20.7c-1,9.9,11.2,15.5,17.2,22.3
			c-0.7,4.3-1.6,8.6-2.6,12.8c-0.3-3.7-1.5-7.2-2.6-10.7c-0.8-2.6-6.3-10.8-10.3-6.1c-4,4.7,5,10.7,7.6,12.9c2.5,2,3.8,4.3,4.6,6.8
			c-0.2,0.8-0.4,1.6-0.6,2.3c-1,4-2.1,8.1-3.1,12.2c-0.7-7.4-0.4-21.1-10.4-20.2c-1.1,5.6,2.8,14.4,6.6,18.6
			c1.2,1.4,2.4,2.5,3.4,3.4c-0.5,2.4-1,4.8-1.4,7.1c-2.7-7.3-9.9-15.3-13-11.5c-3.2,3.9,2.9,10.4,5.6,12.6c2.4,1.9,5,3.5,6.6,5.2
			c-0.3,2.9-0.5,5.7-0.4,8.6c0,2,3.3,1.9,3.4-0.1c0.2-4,0.7-7.9,1.3-11.8c5-1.9,15.2-0.2,18.7-2.2c4.9-2.8,4.2-7.8-1.4-8.9
			c-5.1-1.1-12.4,2.7-16.7,7.5c0.6-3.4,1.4-6.7,2.1-10.1c4.2-2.7,10.3-0.7,14.6-4.5c4.6-3.9,1.6-9.6-4.3-7.8
			c-2.9,0.9-6.5,3.9-9.1,7.2c0.6-2.4,1.2-4.7,1.8-7.1c0.5-2.1,1-4.1,1.5-6.2c4.6-1.9,13.5-0.3,15.6-7c1.5-4.7-2.8-8.9-7.3-5.6
			c-2.3,1.7-5.1,4.6-7.3,7.8c0.8-3.9,1.4-7.7,1.8-11.6c5.2-2.8,15.5-0.1,18.6-6.5c2.6-5.2-4.2-7.7-8.7-5.6c-4.4,2-7.2,6.5-9.8,10.7
			c0.3-2.9,0.6-5.8,0.7-8.7c4-2.9,11.6-4.1,14-9.6c2.3-5.3-1.2-12.2-7.4-7.4c-3.3,2.5-5.2,7-6.4,11.4c0-3.2-0.1-6.5-0.4-9.7
			c1.1-1.6,2.5-3.6,4.4-5.5c2.1-2.2,5-4.1,5.3-7.3c0.4-5.5-4.2-3.4-6.7-0.2c-1.8,2.3-2.7,5.5-3.4,8.6c-0.4-3.6-0.9-7.2-1.5-10.8
			C117.8,64.4,130,59.4,123.3,51.8z"/>
		<linearGradient id="SVGID_35_" gradientUnits="userSpaceOnUse" x1="72.6195" y1="151.9451" x2="140.5515" y2="168.3556">
			<stop  offset="0" style="stop-color:#9BABFD"/>
			<stop  offset="1" style="stop-color:#EEA4B6"/>
		</linearGradient>
		<path class="st40" d="M72.9,153c-3.4-3.8-5-8.2-7-12.8c-0.8-1.8-1.4-3.7-2.5-5.4c-0.5-0.7-1.2-1.5-1.4-2.3c3.6,2,7.4,3.4,10.9,5.6
			c4,2.6,8.2,5.4,11.7,8.6c6,5.4,12.5,10.2,19,15c3.2,2.4,7.9,6.1,7.3,10.7c-0.2,1.8-1.4,3.4-2.5,4.8C104.5,177,88,169.9,72.9,153z"
			/>
		<linearGradient id="SVGID_36_" gradientUnits="userSpaceOnUse" x1="69.0392" y1="166.7658" x2="136.9712" y2="183.1764">
			<stop  offset="0" style="stop-color:#9BABFD"/>
			<stop  offset="1" style="stop-color:#EEA4B6"/>
		</linearGradient>
		<path class="st41" d="M67.9,174.3c-4.8-1.5-8.5-4.5-12.5-7.5c-1.6-1.2-3.1-2.5-4.9-3.4c-0.8-0.4-1.8-0.7-2.4-1.2
			c4.2-0.1,8.1-0.8,12.3-0.7c4.7,0.2,9.8,0.5,14.5,1.5c7.9,1.7,15.9,2.5,24,3.4c4,0.4,9.8,1.3,11.7,5.5c0.7,1.6,0.5,3.7,0.3,5.4
			C107.2,178.9,89.4,181.2,67.9,174.3z"/>
		
			<linearGradient id="SVGID_37_" gradientUnits="userSpaceOnUse" x1="88.1582" y1="517.4976" x2="55.8708" y2="633.9444" gradientTransform="matrix(0.921 0.2328 -0.2451 0.9695 190.7431 -378.4309)">
			<stop  offset="0" style="stop-color:#F58792"/>
			<stop  offset="1" style="stop-color:#B43661"/>
		</linearGradient>
		<path class="st42" d="M128.7,170.5c0,0,0.8-3.6,2.7-9c3.8-10.8,12-28.8,27.3-39.6c0,0-2.2,23.9-19.7,41.5c0,0,22.7-30.4,34.7-33.6
			c0,0-7.7,33.6-29.7,41.1c0,0,16-7.7,25.3-4.3c0,0-11.3,12.3-26,9.6c-14.7-2.7-15,1-15,1s-17.5-11.9-13.3-45.7
			c0,0,12,13.6,12.8,26.2c0,0-1.5-21,3.5-30.4c0,0,9.1,14.4,3.8,34C129.9,181.2,128.7,170.5,128.7,170.5z"/>
	</g>
	<g>
		<polygon class="st43" points="202.5,53.7 225.2,53.7 231.3,63.6 213.8,83.7 196.3,63.7 		"/>
		<polygon class="st44" points="205,63.7 196.3,63.7 202.5,53.7 		"/>
		<polygon class="st45" points="213.8,83.7 205,63.7 196.3,63.7 		"/>
		<polygon class="st28" points="213.8,53.7 202.5,53.7 205,63.7 		"/>
		<polygon class="st44" points="222.6,63.7 231.3,63.7 225.1,53.7 		"/>
		<polygon class="st45" points="213.8,83.7 222.6,63.7 231.3,63.7 		"/>
		<polygon class="st43" points="213.8,63.7 205,63.7 213.8,83.7 222.6,63.7 		"/>
		<polygon class="st28" points="213.8,53.7 225.1,53.7 222.6,63.7 		"/>
		<polygon class="st46" points="213.8,63.7 222.6,63.7 213.8,53.7 205,63.7 		"/>
	</g>
	
		<linearGradient id="SVGID_38_" gradientUnits="userSpaceOnUse" x1="658.4856" y1="1191.5623" x2="658.4856" y2="1296.2834" gradientTransform="matrix(0.7237 0.6901 -0.6901 0.7237 662.9805 -1200.0693)">
		<stop  offset="0" style="stop-color:#774BE0"/>
		<stop  offset="1" style="stop-color:#45278E"/>
	</linearGradient>
	<path class="st47" d="M331.6,114.6c-3.4-1.4-8.6,0.1-12.1,2.6c0.8-1.3,1.6-2.6,2.3-3.9c0.1-0.2,0.2-0.4,0.4-0.7
		c3.6-1.1,12.9-2,13.3-7.3c-3.8-1.7-7.7,0.6-10.3,3c-0.3,0.3-0.8,0.7-1.3,1.2c1.1-2.1,2.2-4.2,3.2-6.4c1.4-0.1,3.5-0.4,5.3-1
		c1.3-0.5,6.5-2.9,2.8-4.5c-1.4-0.6-4.9,1.3-7.1,3.2c0.7-1.6,1.3-3.2,1.9-4.8c5.2-6.6,13.9-13.3,11.3-22.8c-2.7-9.6-9.8,2.3-10.8,6
		c-0.9,3.2-2.6,10.7-1.9,16.3c-0.7,1.7-1.4,3.4-2.2,5c-0.4,0.9-0.9,1.8-1.4,2.7c1.5-6.1,4.4-18.2-1.7-17.6c-5.4,0.5,0,13.8,0.9,19.1
		c-1.4,2.7-2.9,5.4-4.5,8c-0.4,0.7-0.8,1.3-1.3,2c0.5-2.6,2.1-5.7,1.8-8.4c-0.3-2.5-2.5-7.1-5-5.2c-3.6,2.7-0.2,8.2,1.1,11.2
		c0.9,2.2,0.6,3.6,1.2,4c-2.1,3.2-4.4,6.3-6.8,9.3c2.1-4.6,4.4-12.3-0.8-15.9c-6.2,5.1-0.1,11.2,0.1,16.7c-2.5,3-5.1,5.9-7.9,8.7
		c0,0-0.1,0.1-0.1,0.1c1.9-3.4,4-6.5,4.3-10.7c0.3-3.8-2.4-8.8-5.3-3.8c-2.2,3.6-0.8,7.6-0.4,11.6c0.2,1.8-0.1,3.4,0,4.3
		c-2.7,2.5-5.5,4.8-8.4,7.1c3-5.9,8.7-18.5,1.3-20.7c-5.8,5-2,14.5-2.3,21.5c-2.7,2-5.4,3.9-8.2,5.7c1.8-2.2,3-4.8,4.2-7.3
		c0.9-1.9,2.2-9.3-2.5-8.8c-4.7,0.5-2.9,8.6-2.6,11.2c0.3,2.5-0.2,4.4-1.1,6.2c-0.5,0.3-1,0.7-1.6,1c-2.7,1.7-5.5,3.4-8.2,5.2
		c3.5-4.5,11-11.9,4.9-16.7c-3.6,2.5-6.1,9.5-6.2,13.8c0,1.4,0,2.6,0.1,3.7c-1.6,1-3.1,2.1-4.6,3.2c2.4-5.5,2.6-13.7-1.2-13.3
		c-3.8,0.5-3.9,7.3-3.6,9.9c0.3,2.3,0.9,4.6,0.9,6.4c-1.7,1.4-3.3,2.9-4.8,4.5c-1.1,1.1,0.8,2.8,2,1.7c2.2-2.1,4.5-4,6.9-5.8
		c3.8,1.6,8.5,7.9,11.5,8.7c4.2,1.1,6.5-2.1,4-5.7c-2.3-3.3-8.3-5-13.3-4.7c2.1-1.5,4.3-3,6.5-4.4c3.8,0.7,6.1,5,10.5,5.3
		c4.6,0.3,6-4.5,1.7-6.6c-2.1-1-5.6-1.3-8.9-0.8c1.6-1,3.2-2,4.8-3c1.4-0.9,2.7-1.8,4.1-2.7c3.6,1.4,7.6,7,12.3,4.4
		c3.3-1.9,3.1-6.4-1.1-6.9c-2.1-0.3-5.3-0.1-8.1,0.5c2.5-1.7,4.9-3.6,7.2-5.5c4.4,1.2,8.6,8.1,13.8,6.2c4.2-1.6,1.7-6.5-1.9-7.7
		c-3.5-1.2-7.4-0.2-11,0.7c1.7-1.4,3.4-2.9,5-4.5c3.8,0.5,8.6,3.8,12.8,2.1c4.1-1.7,5.8-7.4-0.2-8c-3.2-0.3-6.6,1.1-9.6,2.9
		c1.7-1.8,3.4-3.7,4.9-5.6c1.4-0.3,3.3-0.7,5.4-0.7c2.3-0.1,5,0.4,6.8-1.3c3.1-2.8-0.5-4.1-3.6-3.6c-2.2,0.4-4.4,1.6-6.4,3
		c1.7-2.2,3.3-4.5,4.9-6.8C321.9,118.7,331.3,122.3,331.6,114.6z"/>
	<path class="st0" d="M231.7,175c0,0,5.8,9.4,12,7.2c6.2-2.2,12.7,1.5,17.5,2c4.9,0.6,6-2.1,10.7,0.2c9.9,5,14.9,5,21.8,6
		c12.2,1.8,19.8-1.3,21.8-2.7c4.7-3.1-8-1.2-17.3-5c-9.3-3.9-20-5-26.1-7.2c-6.1-2.2-2.6-8.4-11.7-6.7
		C251.2,170.5,231.7,175,231.7,175z"/>
	
		<linearGradient id="SVGID_39_" gradientUnits="userSpaceOnUse" x1="3550.168" y1="565.0679" x2="3602.6064" y2="577.7356" gradientTransform="matrix(-0.9594 -0.2821 -0.2821 0.9594 3852.5354 622.8056)">
		<stop  offset="0" style="stop-color:#9BABFD"/>
		<stop  offset="1" style="stop-color:#EEA4B6"/>
	</linearGradient>
	<path class="st48" d="M286.6,164.2c3.3-2.1,5.5-5,7.9-8c1-1.2,1.9-2.4,3-3.5c0.5-0.5,1.2-0.8,1.5-1.4c-3.1,0.7-6.2,0.9-9.3,1.8
		c-3.5,1-7.3,2.2-10.6,3.8c-5.6,2.7-11.5,4.9-17.3,7c-2.9,1.1-7.1,2.8-7.7,6.3c-0.2,1.3,0.3,2.8,0.8,4.1
		C258,175,271.8,173.4,286.6,164.2z"/>
	
		<linearGradient id="SVGID_40_" gradientUnits="userSpaceOnUse" x1="3547.4041" y1="576.5084" x2="3599.8428" y2="589.1761" gradientTransform="matrix(-0.9594 -0.2821 -0.2821 0.9594 3852.5354 622.8056)">
		<stop  offset="0" style="stop-color:#9BABFD"/>
		<stop  offset="1" style="stop-color:#EEA4B6"/>
	</linearGradient>
	<path class="st49" d="M285.7,181c3.9-0.1,7.3-1.5,10.9-2.9c1.4-0.5,2.8-1.2,4.3-1.5c0.7-0.1,1.5-0.1,2-0.4c-3.1-1-5.8-2.4-9-3.2
		c-3.6-0.9-7.4-1.8-11.1-2c-6.2-0.5-12.4-1.6-18.5-2.7c-3-0.6-7.6-1.2-9.9,1.5c-0.9,1-1.2,2.6-1.4,3.9
		C255.6,175.9,268.3,181.4,285.7,181z"/>
	<path class="st50" d="M281.4,38.5c0,0.1-0.1,0.1-0.1,0.2c-0.1-0.1-0.1-0.1-0.1-0.2H281.4z"/>
	<path class="st50" d="M281.2,38.5h0.3c0,0.1-0.1,0.1-0.1,0.2C281.3,38.6,281.2,38.6,281.2,38.5z"/>
</g>
</svg>
